<svg width="1055" height="635" viewBox="0 0 1055 635" fill="none" xmlns="http://www.w3.org/2000/svg">
  <path d="M-173.117 313.825L-169.428 295.249C-141.708 155.691 44.2057 108.017 183.376 204.78L202.586 218.137C333.344 309.05 507.953 263.574 532.816 132.128L540.443 91.8087C558.634 -4.36122 676.554 -47.439 782.233 3.4796V3.4796" stroke="white" stroke-width="1.5" stroke-linecap="round" />
  <path d="M-178.813 301.881L-175.123 283.305C-147.403 143.747 38.5104 96.0735 177.681 192.836L196.891 206.193C327.649 297.107 502.258 251.63 527.121 120.185L534.748 79.8651C552.938 -16.3048 670.859 -59.3826 776.538 -8.464V-8.464" stroke="white" stroke-width="1.5" stroke-linecap="round" />
  <path d="M-184.508 289.938L-180.818 271.362C-153.099 131.804 32.8151 84.1304 171.985 180.893L191.196 194.25C321.954 285.164 496.562 239.687 521.426 108.241L529.052 67.922C547.243 -28.2479 665.163 -71.3257 770.843 -20.4071V-20.4071" stroke="white" stroke-width="1.5" stroke-linecap="round" />
  <path d="M-190.204 277.995L-186.515 259.419C-158.795 119.861 27.1188 72.1871 166.289 168.95L185.5 182.307C316.258 273.22 490.866 227.744 515.729 96.2981L523.356 55.9786C541.547 -40.1913 659.467 -83.2691 765.146 -32.3505V-32.3505" stroke="white" stroke-width="1.5" stroke-linecap="round" />
  <path d="M-195.9 266.052L-192.21 247.476C-164.49 107.918 21.4235 60.2442 160.594 157.007L179.804 170.364C310.562 261.278 485.171 215.801 510.034 84.3553L517.661 44.0357C535.852 -52.1342 653.772 -95.2119 759.451 -44.2933V-44.2933" stroke="white" stroke-width="1.5" stroke-linecap="round" />
  <path d="M-201.597 254.108L-197.907 235.532C-170.188 95.9737 15.7262 48.3001 154.896 145.063L174.107 158.42C304.865 249.333 479.473 203.857 504.337 72.4112L511.963 32.0916C530.154 -64.0783 648.075 -107.156 753.754 -56.2374V-56.2374" stroke="white" stroke-width="1.5" stroke-linecap="round" />
  <path d="M-207.291 242.165L-203.602 223.589C-175.882 84.0308 10.0319 36.3572 149.202 133.12L168.413 146.477C299.171 237.391 473.779 191.914 498.642 60.4683L506.269 20.1488C524.46 -76.0211 642.38 -119.099 748.059 -68.1803V-68.1803" stroke="white" stroke-width="1.5" stroke-linecap="round" />
  <path d="M-212.987 230.222L-209.297 211.646C-181.577 72.0877 4.33659 24.4141 143.507 121.177L162.717 134.534C293.475 225.447 468.084 179.971 492.947 48.5252L500.574 8.20566C518.765 -87.9642 636.685 -131.042 742.364 -80.1234V-80.1234" stroke="white" stroke-width="1.5" stroke-linecap="round" />
  <path d="M-218.683 218.278L-214.993 199.702C-187.273 60.1438 -1.3597 12.4703 137.81 109.233L157.021 122.59C287.779 213.504 462.388 168.027 487.251 36.5813L494.877 -3.73819C513.068 -99.9081 630.989 -142.986 736.668 -92.0673V-92.0673" stroke="white" stroke-width="1.5" stroke-linecap="round" />
  <path d="M-224.378 206.335L-220.688 187.759C-192.969 48.2007 -7.05501 0.527156 132.115 97.2898L151.326 110.647C282.084 201.561 456.692 156.084 481.556 24.6382L489.182 -15.6813C507.373 -111.851 625.293 -154.929 730.972 -104.01V-104.01" stroke="white" stroke-width="1.5" stroke-linecap="round" />
  <path d="M-230.483 193.168L-226.793 174.592C-199.073 35.034 -13.1595 -12.6396 126.011 84.1231L145.221 97.4799C275.979 188.394 450.588 142.917 475.451 11.4715L483.078 -28.8481C501.268 -125.018 619.189 -168.096 724.868 -117.177V-117.177" stroke="white" stroke-width="1.5" stroke-linecap="round" />
  <path d="M-235.77 182.448L-232.08 163.872C-204.36 24.3143 -18.4466 -23.3593 120.724 73.4034L139.934 86.7601C270.692 177.674 445.301 132.197 470.164 0.751737L477.791 -39.5678C495.981 -135.738 613.902 -178.815 719.581 -127.897V-127.897" stroke="white" stroke-width="1.5" stroke-linecap="round" />
  <path d="M-241.465 170.506L-237.775 151.929C-210.056 12.3714 -24.1419 -35.3022 115.028 61.4605L134.239 74.8173C264.997 165.731 439.605 120.254 464.469 -11.1911L472.095 -51.5106C490.286 -147.681 608.206 -190.758 713.885 -139.84V-139.84" stroke="white" stroke-width="1.5" stroke-linecap="round" />
  <path d="M-247.161 158.562L-243.472 139.986C-215.752 0.428027 -29.8382 -47.2455 109.332 49.5171L128.542 62.8739C259.301 153.788 433.909 108.311 458.772 -23.1345L466.399 -63.454C484.59 -159.624 602.51 -202.702 708.189 -151.783V-151.783" stroke="white" stroke-width="1.5" stroke-linecap="round" />
  <path d="M-252.857 146.618L-249.167 128.042C-221.447 -11.5158 -35.5335 -59.1894 103.637 37.5733L122.847 50.9301C253.605 141.844 428.214 96.3671 453.077 -35.0783L460.704 -75.3979C478.894 -171.568 596.815 -214.646 702.494 -163.727V-163.727" stroke="white" stroke-width="1.5" stroke-linecap="round" />
  <path d="M-258.418 134.958L-254.729 116.382C-227.009 -23.176 -41.095 -70.8496 98.0751 25.9131L117.286 39.2699C248.044 130.184 422.652 84.707 447.516 -46.7385L455.142 -87.058C473.333 -183.228 591.253 -226.306 696.932 -175.387V-175.387" stroke="white" stroke-width="1.5" stroke-linecap="round" />
  <path d="M-263.979 123.297L-260.289 104.721C-232.569 -34.8369 -46.6556 -82.5104 92.5145 14.2522L111.725 27.609C242.483 118.523 417.092 73.0461 441.955 -58.3994L449.582 -98.7189C467.772 -194.889 585.693 -237.967 691.372 -187.048V-187.048" stroke="white" stroke-width="1.5" stroke-linecap="round" />
  <path d="M-269.539 111.636L-265.85 93.0602C-238.13 -46.4978 -52.2161 -94.1713 86.954 2.59135L106.165 15.9481C236.923 106.862 411.531 61.3852 436.394 -70.0603L444.021 -110.38C462.212 -206.55 580.132 -249.627 685.811 -198.709V-198.709" stroke="white" stroke-width="1.5" stroke-linecap="round" />
  <path d="M-275.101 99.9762L-271.411 81.4C-243.691 -58.1579 -57.7777 -105.831 81.3925 -9.0688L100.603 4.28797C231.361 95.2019 405.97 49.725 430.833 -81.7204L438.459 -122.04C456.65 -218.21 574.571 -261.288 680.25 -210.369V-210.369" stroke="white" stroke-width="1.5" stroke-linecap="round" />
  <path d="M-280.661 88.3153L-276.972 69.7391C-249.252 -69.8188 -63.3382 -117.492 75.8319 -20.7297L95.0425 -7.37292C225.801 83.541 400.409 38.0641 425.272 -93.3813L432.899 -133.701C451.09 -229.871 569.01 -272.949 674.689 -222.03V-222.03" stroke="white" stroke-width="1.5" stroke-linecap="round" />
  <path d="M-286.222 76.6549L-282.532 58.0787C-254.813 -81.4792 -68.8988 -129.153 70.2714 -32.3901L89.4819 -19.0333C220.24 71.8806 394.848 26.4037 419.712 -105.042L427.338 -145.361C445.529 -241.531 563.45 -284.609 669.129 -233.69V-233.69" stroke="white" stroke-width="1.5" stroke-linecap="round" />
  <path d="M-291.783 64.9941L-288.094 46.4178C-260.374 -93.1401 -74.4603 -140.814 64.7099 -44.051L83.9204 -30.6942C214.678 60.2197 389.287 14.7429 414.15 -116.703L421.777 -157.022C439.968 -253.192 557.888 -296.27 663.567 -245.351V-245.351" stroke="white" stroke-width="1.5" stroke-linecap="round" />
  <path d="M-297.344 53.3337L-293.654 34.7574C-265.935 -104.8 -80.0208 -152.474 59.1493 -55.7114L78.3599 -42.3546C209.118 48.5593 383.726 3.08245 408.59 -128.363L416.216 -168.683C434.407 -264.852 552.328 -307.93 658.007 -257.012V-257.012" stroke="white" stroke-width="1.5" stroke-linecap="round" />
  <path d="M-302.905 41.6728L-299.215 23.0965C-271.495 -116.461 -85.5814 -164.135 53.5888 -67.3723L72.7993 -54.0155C203.557 36.8984 378.166 -8.57844 403.029 -140.024L410.656 -180.343C428.847 -276.513 546.767 -319.591 652.446 -268.672V-268.672" stroke="white" stroke-width="1.5" stroke-linecap="round" />
  <path d="M-308.466 30.0126L-304.776 11.4364C-277.057 -128.122 -91.1429 -175.795 48.0272 -79.0324L67.2378 -65.6757C197.996 25.2382 372.604 -20.2386 397.468 -151.684L405.094 -192.004C423.285 -288.173 541.205 -331.251 646.884 -280.333V-280.333" stroke="white" stroke-width="1.5" stroke-linecap="round" />
  <path d="M-314.027 18.3517L-310.337 -0.2245C-282.617 -139.782 -96.7034 -187.456 42.4667 -90.6933L61.6772 -77.3365C192.435 13.5774 367.044 -31.8995 391.907 -163.345L399.534 -203.664C417.725 -299.834 535.645 -342.912 641.324 -291.994V-291.994" stroke="white" stroke-width="1.5" stroke-linecap="round" />
  <path d="M-319.588 6.69133L-315.898 -11.8849C-288.179 -151.443 -102.265 -199.116 36.9052 -102.354L56.1157 -88.9969C186.874 1.91695 361.482 -43.5599 386.346 -175.005L393.972 -215.325C412.163 -311.495 530.083 -354.573 635.762 -303.654V-303.654" stroke="white" stroke-width="1.5" stroke-linecap="round" />
  <path d="M-325.149 -4.96956L-321.459 -23.5458C-293.739 -163.104 -107.826 -210.777 31.3446 -114.015L50.5552 -100.658C181.313 -9.74394 355.922 -55.2208 380.785 -186.666L388.412 -226.986C406.602 -323.156 524.523 -366.233 630.202 -315.315V-315.315" stroke="white" stroke-width="1.5" stroke-linecap="round" />
  <path d="M-330.709 -16.6297L-327.02 -35.2059C-299.3 -174.764 -113.386 -222.437 25.7841 -125.675L44.9946 -112.318C175.753 -21.4041 350.361 -66.8809 375.225 -198.326L382.851 -238.646C401.042 -334.816 518.962 -377.894 624.641 -326.975V-326.975" stroke="white" stroke-width="1.5" stroke-linecap="round" />
</svg>