<svg width="120" height="37" viewBox="0 0 120 37" fill="none" xmlns="http://www.w3.org/2000/svg">
<path d="M31.3491 12.4339C30.4499 11.9688 29.4886 11.6897 28.5274 11.5967C28.1243 10.7285 27.5972 9.89126 26.853 9.17808L21.1786 3.47266L15.4731 9.17808C14.7599 9.89126 14.2018 10.7285 13.7987 11.5967C12.8375 11.6897 11.8762 11.9688 10.977 12.4339L3.7832 16.0928L7.44212 23.2866C7.90723 24.1858 8.52739 24.961 9.24057 25.6122C9.05452 26.5424 8.99251 27.5347 9.17855 28.5579L10.4499 36.5269L18.4189 35.2556C19.4111 35.1006 20.3723 34.7595 21.1786 34.2634C22.0158 34.7595 22.946 35.1006 23.9382 35.2556L31.9072 36.5269L33.1786 28.5579C33.3336 27.5657 33.3026 26.5424 33.0855 25.6122C33.7987 24.961 34.4189 24.1858 34.884 23.2866L38.5429 16.0928L31.3491 12.4339Z" fill="#F9AFC4"/>
<path d="M14.6356 19.6274C15.0387 19.5034 15.4418 19.4104 15.8759 19.3484C17.1783 19.1313 18.4496 19.2553 19.6279 19.6584C19.6279 18.4181 19.9069 17.1778 20.4961 15.9995C20.6821 15.6274 20.8992 15.2553 21.1472 14.9142C19.4418 12.5577 16.5891 11.3484 13.7674 11.6274C12.6511 14.2011 12.9302 17.2708 14.6356 19.6274Z" fill="#F37897"/>
<path d="M21.1475 14.8834C21.3955 15.2245 21.6126 15.5656 21.7986 15.9687C22.3878 17.1469 22.6668 18.3873 22.6668 19.6276C23.8451 19.2555 25.1165 19.1314 26.4188 19.3175C26.8529 19.3795 27.256 19.4725 27.6591 19.5966C29.3645 17.24 29.6436 14.1702 28.4963 11.5656C25.7056 11.3175 22.8839 12.5268 21.1475 14.8834Z" fill="#F37897"/>
<path d="M27.6902 19.6274C27.4421 19.9685 27.1631 20.2786 26.884 20.5887C25.9538 21.5189 24.8375 22.1701 23.6592 22.5422C24.3724 23.5344 24.8995 24.7127 25.1165 26.015C25.1786 26.4491 25.2096 26.8522 25.2096 27.2553C27.9693 28.1546 30.977 27.4724 33.0855 25.5809C32.4964 22.8522 30.4499 20.5267 27.6902 19.6274Z" fill="#F37897"/>
<path d="M22.6978 19.6276C22.6978 20.1857 22.6357 20.7439 22.5117 21.302C22.9148 21.6741 23.3179 22.1082 23.628 22.5423C24.8063 22.1702 25.9226 21.519 26.8528 20.5888C27.1629 20.2787 27.442 19.9687 27.659 19.6276C27.2559 19.5035 26.8528 19.4105 26.4187 19.3485C25.1474 19.1314 23.8761 19.2555 22.6978 19.6276Z" fill="#ED5274"/>
<path d="M22.6979 19.6275C22.6979 18.3872 22.4189 17.1469 21.8297 15.9686C21.6437 15.5965 21.4266 15.2244 21.1786 14.8833C20.9305 15.2244 20.7134 15.5655 20.5274 15.9686C19.9382 17.1469 19.6592 18.3872 19.6592 19.6275C20.1863 19.8135 20.7134 20.0306 21.2096 20.3097C21.6437 20.0306 22.1708 19.8135 22.6979 19.6275Z" fill="#ED5274"/>
<path d="M22.5118 21.3019C22.6358 20.7437 22.6978 20.1856 22.6978 19.6274C22.1707 19.8135 21.6436 20.0305 21.1475 20.3096C21.6436 20.5887 22.1087 20.9298 22.5118 21.3019Z" fill="#E73859"/>
<path d="M25.2095 27.2866C24.8064 27.1625 24.4343 27.0075 24.0312 26.7904C22.8529 26.2013 21.8916 25.3331 21.1785 24.3408C20.4653 25.3331 19.5041 26.2013 18.3258 26.7904C17.9537 26.9765 17.5506 27.1315 17.1475 27.2866C17.1475 30.2013 18.7289 32.868 21.1785 34.2633C23.6281 32.868 25.2095 30.2013 25.2095 27.2866Z" fill="#F37897"/>
<path d="M17.1475 27.2864C17.1475 26.8833 17.1785 26.4491 17.2405 26.015C17.4575 24.7127 17.9537 23.5344 18.6978 22.5422C17.5195 22.1701 16.4033 21.5189 15.473 20.5887C15.163 20.2786 14.8839 19.9685 14.6668 19.6274C11.9071 20.5267 9.86063 22.8522 9.27148 25.6119C11.349 27.5344 14.3568 28.2166 17.1475 27.2864Z" fill="#F37897"/>
<path d="M19.814 21.3019C19.69 20.7438 19.628 20.1856 19.628 19.6275C18.4497 19.2554 17.1784 19.1314 15.8761 19.3174C15.4419 19.3794 15.0388 19.4724 14.6357 19.5965C14.8838 19.9376 15.1629 20.2476 15.4419 20.5577C16.3722 21.488 17.4885 22.1391 18.6667 22.5112C19.0078 22.1081 19.3799 21.674 19.814 21.3019Z" fill="#ED5274"/>
<path d="M18.6666 22.5425C17.9534 23.5347 17.4263 24.713 17.2092 26.0154C17.1472 26.4495 17.1162 26.8526 17.1162 27.2867C17.5193 27.1626 17.8914 27.0076 18.2945 26.7905C19.4728 26.2014 20.434 25.3332 21.1472 24.3409C20.8061 23.8758 20.5271 23.4107 20.31 22.8836C19.7519 22.8526 19.2247 22.7285 18.6666 22.5425Z" fill="#ED5274"/>
<path d="M19.8145 21.3018C19.4114 21.6739 19.0083 22.108 18.6982 22.5421C19.2254 22.7281 19.7835 22.8211 20.3417 22.8832C20.0936 22.387 19.9075 21.8599 19.8145 21.3018Z" fill="#E73859"/>
<path d="M21.1787 24.3719C21.8919 25.3642 22.8531 26.2324 24.0314 26.8215C24.4035 27.0076 24.8066 27.1626 25.2097 27.3177C25.2097 26.9146 25.1787 26.4805 25.1167 26.0774C24.8996 24.775 24.4035 23.5967 23.6593 22.6045C23.1322 22.7905 22.5741 22.8836 22.0159 22.9456C21.7679 23.4107 21.4888 23.9068 21.1787 24.3719Z" fill="#ED5274"/>
<path d="M22.5115 21.3018C22.3875 21.8599 22.2324 22.387 21.9844 22.9142C22.5425 22.8521 23.1007 22.7281 23.6278 22.5731C23.3177 22.108 22.9456 21.6739 22.5115 21.3018Z" fill="#E73859"/>
<path d="M21.1783 20.3096C20.6822 20.0305 20.1861 19.8135 19.6279 19.6274C19.6279 20.1856 19.6899 20.7437 19.814 21.3019C20.2171 20.9298 20.6822 20.5887 21.1783 20.3096Z" fill="#E73859"/>
<path d="M20.3105 22.9146C20.5276 23.4107 20.8067 23.9068 21.1478 24.3719C21.4888 23.9068 21.7679 23.4417 21.985 22.9146C21.4578 22.9766 20.8687 22.9766 20.3105 22.9146Z" fill="#E73859"/>
<path d="M19.8145 21.3018C19.9385 21.86 20.0935 22.3871 20.3416 22.9142C20.8997 22.9762 21.4579 22.9762 22.016 22.9142C22.2331 22.3871 22.4191 21.86 22.5431 21.3018C22.14 20.9297 21.6749 20.5886 21.1788 20.3096C20.6827 20.5886 20.2176 20.9297 19.8145 21.3018Z" fill="#E22644"/>
<path d="M46.543 25.736V14.5112H52.5895V16.4957H48.6205V19.1314H52.4034V21.1159H48.6205V23.7205H52.5895V25.736H46.543Z" fill="white"/>
<path d="M54.2637 25.7361V17.302H56.2792V25.7361H54.2637ZM54.2637 16.0927V14.0771H56.2792V16.0927H54.2637Z" fill="white"/>
<path d="M66.2637 22.418H59.7211C59.9691 23.4413 60.8374 24.0615 62.0467 24.0615C62.8839 24.0615 63.38 23.8444 63.9071 23.2242H66.1087C65.5505 24.9607 63.7831 25.9219 62.0777 25.9219C59.504 25.9219 57.5195 23.9994 57.5195 21.5498C57.5195 19.0692 59.473 17.1157 61.9536 17.1157C64.4653 17.1157 66.2947 19.0382 66.2947 21.6429C66.3257 21.9529 66.3257 22.139 66.2637 22.418ZM62.0157 18.9762C60.8064 18.9762 60.0002 19.5653 59.6591 20.6506H64.3412C64.0932 19.5653 63.256 18.9762 62.0157 18.9762Z" fill="white"/>
<path d="M73.1165 25.7359V21.6118C73.1165 19.3483 72.4964 18.9762 71.5041 18.9762C70.853 18.9762 70.3258 19.2553 70.0158 19.7514C69.7677 20.1545 69.6747 20.6506 69.6747 21.7669V25.7359H67.6592V17.3018H69.5196V18.108C70.2638 17.3948 70.946 17.1157 71.9072 17.1157C73.0855 17.1157 73.9848 17.5498 74.5429 18.325C75.008 18.9762 75.1631 19.7204 75.1631 21.2087V25.7359H73.1165Z" fill="white"/>
<path d="M82.171 25.736H80.4656L76.0625 14.5112H78.2641L81.3028 23.0694L84.3416 14.5112H86.5431L82.171 25.736Z" fill="white"/>
<path d="M93.0388 25.5887V24.5034C92.2326 25.4026 91.4264 25.8057 90.2481 25.8057C87.7985 25.8057 86 23.9763 86 21.4336C86 18.86 87.7985 16.9995 90.2791 16.9995C91.4884 16.9995 92.3256 17.4026 93.0388 18.3328V17.2166H94.8992V25.5887H93.0388ZM90.4961 18.829C89.0388 18.829 88.0465 19.9142 88.0465 21.4646C88.0465 22.953 89.0698 23.9452 90.5271 23.9452C92.0775 23.9452 92.9767 22.86 92.9767 21.4646C92.9767 19.9142 91.9535 18.829 90.4961 18.829Z" fill="white"/>
<path d="M102.264 25.7359V24.9297C101.488 25.6739 100.868 25.9219 99.8449 25.9219C97.8914 25.9219 96.6201 24.7746 96.6201 21.7979V17.3018H98.6356V21.4258C98.6356 23.6583 99.2558 24.0614 100.248 24.0614C100.93 24.0614 101.488 23.7824 101.798 23.2863C102.015 22.9142 102.108 22.387 102.108 21.2708V17.3018H104.124V25.7359H102.264Z" fill="white"/>
<path d="M105.768 25.736V14.5112H107.783V25.736H105.768Z" fill="white"/>
<path d="M111.752 19.1624V25.736H109.736V19.1624H108.744V17.3329H109.736V14.5112H111.752V17.3329H112.961V19.1624H111.752Z" fill="white"/>
</svg>
