<svg width="115" height="40" viewBox="0 0 115 40" fill="none" xmlns="http://www.w3.org/2000/svg">
  <path d="M31.3491 12.4341C30.4499 11.969 29.4886 11.69 28.5274 11.5969C28.1243 10.7287 27.5972 9.89151 26.853 9.17833L21.1786 3.4729L15.4731 9.17833C14.7599 9.89151 14.2018 10.7287 13.7987 11.5969C12.8375 11.69 11.8762 11.969 10.977 12.4341L3.7832 16.0931L7.44212 23.2869C7.90723 24.1861 8.52739 24.9613 9.24057 25.6124C9.05452 26.5427 8.99251 27.5349 9.17855 28.5582L10.4499 36.5272L18.4189 35.2558C19.4111 35.1008 20.3723 34.7597 21.1786 34.2636C22.0158 34.7597 22.946 35.1008 23.9382 35.2558L31.9072 36.5272L33.1786 28.5582C33.3336 27.5659 33.3026 26.5427 33.0855 25.6124C33.7987 24.9613 34.4189 24.1861 34.884 23.2869L38.5429 16.0931L31.3491 12.4341Z" fill="#F9AFC4"/>
  <path d="M14.6356 19.6279C15.0387 19.5039 15.4418 19.4109 15.8759 19.3488C17.1783 19.1318 18.4496 19.2558 19.6279 19.6589C19.6279 18.4186 19.9069 17.1783 20.4961 16C20.6821 15.6279 20.8992 15.2558 21.1472 14.9147C19.4418 12.5581 16.5891 11.3488 13.7674 11.6279C12.6511 14.2016 12.9302 17.2713 14.6356 19.6279Z" fill="#F37897"/>
  <path d="M21.1465 14.8837C21.3945 15.2248 21.6116 15.5659 21.7976 15.969C22.3868 17.1473 22.6659 18.3876 22.6659 19.6279C23.8442 19.2558 25.1155 19.1318 26.4178 19.3179C26.8519 19.3799 27.255 19.4729 27.6581 19.5969C29.3635 17.2403 29.6426 14.1706 28.4953 11.5659C25.7046 11.3179 22.8829 12.5272 21.1465 14.8837Z" fill="#F37897"/>
  <path d="M27.6892 19.6279C27.4411 19.969 27.1621 20.2791 26.883 20.5892C25.9528 21.5194 24.8365 22.1706 23.6582 22.5427C24.3714 23.5349 24.8985 24.7132 25.1156 26.0155C25.1776 26.4496 25.2086 26.8527 25.2086 27.2558C27.9683 28.1551 30.976 27.4729 33.0846 25.5814C32.4954 22.8527 30.4489 20.5272 27.6892 19.6279Z" fill="#F37897"/>
  <path d="M22.6978 19.6279C22.6978 20.1861 22.6357 20.7442 22.5117 21.3024C22.9148 21.6745 23.3179 22.1086 23.628 22.5427C24.8063 22.1706 25.9226 21.5194 26.8528 20.5892C27.1629 20.2791 27.442 19.969 27.659 19.6279C27.2559 19.5039 26.8528 19.4109 26.4187 19.3489C25.1474 19.1318 23.8761 19.2558 22.6978 19.6279Z" fill="#ED5274"/>
  <path d="M22.697 19.628C22.697 18.3877 22.4179 17.1474 21.8287 15.9691C21.6427 15.597 21.4256 15.2249 21.1776 14.8838C20.9295 15.2249 20.7125 15.566 20.5264 15.9691C19.9373 17.1474 19.6582 18.3877 19.6582 19.628C20.1853 19.814 20.7125 20.0311 21.2086 20.3101C21.6427 20.0311 22.1698 19.814 22.697 19.628Z" fill="#ED5274"/>
  <path d="M22.5108 21.3023C22.6349 20.7442 22.6969 20.1861 22.6969 19.6279C22.1697 19.814 21.6426 20.031 21.1465 20.3101C21.6426 20.5892 22.1077 20.9303 22.5108 21.3023Z" fill="#E73859"/>
  <path d="M25.2085 27.2868C24.8054 27.1628 24.4333 27.0077 24.0302 26.7907C22.8519 26.2015 21.8907 25.3333 21.1775 24.3411C20.4643 25.3333 19.5031 26.2015 18.3248 26.7907C17.9527 26.9767 17.5496 27.1318 17.1465 27.2868C17.1465 30.2015 18.7279 32.8682 21.1775 34.2635C23.6271 32.8682 25.2085 30.2015 25.2085 27.2868Z" fill="#F37897"/>
  <path d="M17.1475 27.2868C17.1475 26.8837 17.1785 26.4496 17.2405 26.0155C17.4575 24.7132 17.9537 23.5349 18.6978 22.5427C17.5195 22.1706 16.4033 21.5194 15.473 20.5892C15.163 20.2791 14.8839 19.969 14.6668 19.6279C11.9071 20.5272 9.86063 22.8527 9.27148 25.6124C11.349 27.5349 14.3568 28.2171 17.1475 27.2868Z" fill="#F37897"/>
  <path d="M19.815 21.3024C19.691 20.7443 19.629 20.1861 19.629 19.628C18.4507 19.2559 17.1794 19.1319 15.877 19.3179C15.4429 19.3799 15.0398 19.4729 14.6367 19.597C14.8848 19.9381 15.1639 20.2481 15.4429 20.5582C16.3732 21.4884 17.4894 22.1396 18.6677 22.5117C19.0088 22.1086 19.3809 21.6745 19.815 21.3024Z" fill="#ED5274"/>
  <path d="M18.6676 22.5426C17.9544 23.5349 17.4273 24.7131 17.2102 26.0155C17.1482 26.4496 17.1172 26.8527 17.1172 27.2868C17.5203 27.1628 17.8924 27.0077 18.2955 26.7907C19.4738 26.2015 20.435 25.3333 21.1482 24.3411C20.8071 23.8759 20.528 23.4108 20.311 22.8837C19.7528 22.8527 19.2257 22.7286 18.6676 22.5426Z" fill="#ED5274"/>
  <path d="M19.8135 21.3024C19.4104 21.6745 19.0073 22.1086 18.6973 22.5427C19.2244 22.7287 19.7825 22.8217 20.3407 22.8838C20.0926 22.3876 19.9066 21.8605 19.8135 21.3024Z" fill="#E73859"/>
  <path d="M21.1777 24.3722C21.8909 25.3644 22.8522 26.2326 24.0304 26.8218C24.4025 27.0078 24.8056 27.1629 25.2087 27.3179C25.2087 26.9148 25.1777 26.4807 25.1157 26.0776C24.8987 24.7753 24.4025 23.597 23.6584 22.6047C23.1312 22.7908 22.5731 22.8838 22.0149 22.9458C21.7669 23.4109 21.4878 23.9071 21.1777 24.3722Z" fill="#ED5274"/>
  <path d="M22.5115 21.3024C22.3875 21.8605 22.2324 22.3876 21.9844 22.9148C22.5425 22.8528 23.1007 22.7287 23.6278 22.5737C23.3177 22.1086 22.9456 21.6745 22.5115 21.3024Z" fill="#E73859"/>
  <path d="M21.1793 20.3101C20.6832 20.031 20.187 19.814 19.6289 19.6279C19.6289 20.1861 19.6909 20.7442 19.815 21.3023C20.2181 20.9303 20.6832 20.5892 21.1793 20.3101Z" fill="#E73859"/>
  <path d="M20.3105 22.9148C20.5276 23.4109 20.8067 23.907 21.1478 24.3722C21.4888 23.907 21.7679 23.4419 21.985 22.9148C21.4578 22.9768 20.8687 22.9768 20.3105 22.9148Z" fill="#E73859"/>
  <path d="M19.8145 21.3023C19.9385 21.8604 20.0935 22.3876 20.3416 22.9147C20.8997 22.9767 21.4579 22.9767 22.016 22.9147C22.2331 22.3876 22.4191 21.8604 22.5431 21.3023C22.14 20.9302 21.6749 20.5891 21.1788 20.3101C20.6827 20.5891 20.2176 20.9302 19.8145 21.3023Z" fill="#E22644"/>
  <path d="M46.543 25.7364V14.5116H52.5895V16.4961H48.6205V19.1318H52.4034V21.1162H48.6205V23.7209H52.5895V25.7364H46.543Z" fill="white"/>
  <path d="M54.2637 25.7364V17.3023H56.2792V25.7364H54.2637ZM54.2637 16.093V14.0775H56.2792V16.093H54.2637Z" fill="white"/>
  <path d="M66.2637 22.4187H59.7211C59.9691 23.4419 60.8374 24.0621 62.0467 24.0621C62.8839 24.0621 63.38 23.845 63.9071 23.2249H66.1087C65.5505 24.9613 63.7831 25.9225 62.0777 25.9225C59.504 25.9225 57.5195 24.0001 57.5195 21.5504C57.5195 19.0698 59.473 17.1163 61.9536 17.1163C64.4653 17.1163 66.2947 19.0388 66.2947 21.6435C66.3257 21.9535 66.3257 22.1396 66.2637 22.4187ZM62.0157 18.9768C60.8064 18.9768 60.0002 19.5659 59.6591 20.6512H64.3412C64.0932 19.5659 63.256 18.9768 62.0157 18.9768Z" fill="white"/>
  <path d="M73.1175 25.7365V21.6125C73.1175 19.3489 72.4974 18.9768 71.5051 18.9768C70.854 18.9768 70.3268 19.2559 70.0167 19.752C69.7687 20.1551 69.6757 20.6512 69.6757 21.7675V25.7365H67.6602V17.3024H69.5206V18.1086C70.2648 17.3954 70.947 17.1163 71.9082 17.1163C73.0865 17.1163 73.9857 17.5504 74.5439 18.3256C75.009 18.9768 75.164 19.721 75.164 21.2094V25.7365H73.1175Z" fill="white"/>
  <path d="M82.171 25.7364H80.4656L76.0625 14.5116H78.2641L81.3028 23.0697L84.3416 14.5116H86.5431L82.171 25.7364Z" fill="white"/>
  <path d="M93.2712 25.7365V24.6512C92.465 25.5504 91.6588 25.9535 90.4805 25.9535C88.0309 25.9535 86.2324 24.1241 86.2324 21.5814C86.2324 19.0078 88.0309 17.1473 90.5115 17.1473C91.7208 17.1473 92.558 17.5504 93.2712 18.4807V17.3644H95.1317V25.7365H93.2712ZM90.7285 18.9768C89.2712 18.9768 88.2789 20.0621 88.2789 21.6125C88.2789 23.1008 89.3022 24.0931 90.7596 24.0931C92.3099 24.0931 93.2092 23.0078 93.2092 21.6125C93.2092 20.0621 92.1859 18.9768 90.7285 18.9768Z" fill="white"/>
  <path d="M102.265 25.7365V24.9303C101.489 25.6745 100.869 25.9225 99.8459 25.9225C97.8924 25.9225 96.6211 24.7752 96.6211 21.7985V17.3024H98.6366V21.4264C98.6366 23.659 99.2568 24.0621 100.249 24.0621C100.931 24.0621 101.489 23.783 101.799 23.2869C102.016 22.9148 102.109 22.3876 102.109 21.2714V17.3024H104.125V25.7365H102.265Z" fill="white"/>
  <path d="M105.768 25.7364V14.5116H107.783V25.7364H105.768Z" fill="white"/>
  <path d="M111.752 19.1628V25.7364H109.736V19.1628H108.744V17.3333H109.736V14.5116H111.752V17.3333H112.961V19.1628H111.752Z" fill="white"/>
</svg>