<svg width="208" height="72" viewBox="0 0 208 72" fill="none" xmlns="http://www.w3.org/2000/svg">
<path d="M56.8047 22.3812C55.1753 21.544 53.4335 21.0417 51.6918 20.8742C50.9614 19.3114 50.0062 17.8045 48.6577 16.5207L38.3757 6.25098L28.0375 16.5207C26.7453 17.8045 25.7339 19.3114 25.0035 20.8742C23.2617 21.0417 21.52 21.544 19.8906 22.3812L6.85547 28.9673L13.4854 41.9161C14.3282 43.5347 15.4519 44.9301 16.7442 46.1021C16.4071 47.7766 16.2947 49.5626 16.6318 51.4045L18.9354 65.7487L33.3752 63.4603C35.1731 63.1812 36.9149 62.5673 38.3757 61.6742C39.8927 62.5673 41.5783 63.1812 43.3763 63.4603L57.816 65.7487L60.1196 51.4045C60.4006 49.6184 60.3444 47.7766 59.9511 46.1021C61.2434 44.9301 62.3671 43.5347 63.2099 41.9161L69.8398 28.9673L56.8047 22.3812Z" fill="#F9AFC4"/>
<path d="M26.5186 35.33C27.249 35.1068 27.9794 34.9393 28.766 34.8277C31.1258 34.437 33.4295 34.6603 35.5645 35.3859C35.5645 33.1533 36.0702 30.9207 37.1377 28.7998C37.4748 28.13 37.8681 27.4603 38.3176 26.8463C35.2274 22.6045 30.0583 20.4277 24.9454 20.93C22.9227 25.5626 23.4284 31.0882 26.5186 35.33Z" fill="#F37897"/>
<path d="M38.3174 26.7907C38.7669 27.4046 39.1602 28.0186 39.4973 28.7442C40.5648 30.8651 41.0705 33.0977 41.0705 35.3302C43.2056 34.6604 45.5092 34.4372 47.869 34.7721C48.6556 34.8837 49.386 35.0511 50.1164 35.2744C53.2066 31.0325 53.7123 25.507 51.6334 20.8186C46.5767 20.3721 41.4638 22.5488 38.3174 26.7907Z" fill="#F37897"/>
<path d="M50.1723 35.3301C49.7228 35.944 49.2172 36.5022 48.7115 37.0603C47.0259 38.7347 45.0032 39.9068 42.8682 40.5766C44.1604 42.3626 45.1156 44.4836 45.5089 46.8278C45.6213 47.6091 45.6775 48.3347 45.6775 49.0603C50.678 50.6789 56.128 49.451 59.9487 46.0464C58.8811 41.1347 55.1729 36.9487 50.1723 35.3301Z" fill="#F37897"/>
<path d="M41.1281 35.3303C41.1281 36.335 41.0158 37.3396 40.791 38.3443C41.5214 39.014 42.2518 39.7954 42.8137 40.5768C44.9488 39.9071 46.9715 38.735 48.657 37.0605C49.2189 36.5024 49.7246 35.9443 50.1179 35.3303C49.3874 35.1071 48.657 34.9396 47.8704 34.828C45.5668 34.4373 43.2632 34.6605 41.1281 35.3303Z" fill="#ED5274"/>
<path d="M41.1283 35.3301C41.1283 33.0975 40.6226 30.8649 39.5551 28.744C39.218 28.0742 38.8247 27.4045 38.3752 26.7905C37.9257 27.4045 37.5324 28.0184 37.1953 28.744C36.1277 30.8649 35.6221 33.0975 35.6221 35.3301C36.5772 35.6649 37.5324 36.0556 38.4314 36.558C39.218 36.0556 40.1731 35.6649 41.1283 35.3301Z" fill="#ED5274"/>
<path d="M40.7896 38.344C41.0143 37.3394 41.1267 36.3347 41.1267 35.3301C40.1715 35.665 39.2164 36.0557 38.3174 36.558C39.2164 37.0603 40.0591 37.6743 40.7896 38.344Z" fill="#E73859"/>
<path d="M45.6777 49.1163C44.9472 48.893 44.273 48.614 43.5426 48.2233C41.4075 47.1628 39.6658 45.6 38.3735 43.814C37.0812 45.6 35.3395 47.1628 33.2044 48.2233C32.5302 48.5582 31.7998 48.8372 31.0693 49.1163C31.0693 54.3628 33.9348 59.1628 38.3735 61.6744C42.8122 59.1628 45.6777 54.3628 45.6777 49.1163Z" fill="#F37897"/>
<path d="M31.07 49.1161C31.07 48.3905 31.1262 47.6091 31.2386 46.8278C31.6319 44.4836 32.5309 42.3626 33.8793 40.5766C31.7443 39.9068 29.7216 38.7347 28.036 37.0603C27.4741 36.5022 26.9685 35.944 26.5752 35.3301C21.5746 36.9487 17.8664 41.1347 16.7988 46.1022C20.5633 49.5626 26.0133 50.7905 31.07 49.1161Z" fill="#F37897"/>
<path d="M35.9016 38.3441C35.6768 37.3395 35.5645 36.3348 35.5645 35.3302C33.4294 34.6604 31.1258 34.4371 28.766 34.772C27.9794 34.8836 27.249 35.0511 26.5186 35.2743C26.968 35.8883 27.4737 36.4464 27.9794 37.0046C29.665 38.679 31.6877 39.8511 33.8227 40.5209C34.4408 39.7953 35.115 39.0139 35.9016 38.3441Z" fill="#ED5274"/>
<path d="M33.823 40.5767C32.5307 42.3627 31.5755 44.4836 31.1822 46.8278C31.0699 47.6092 31.0137 48.3348 31.0137 49.1162C31.7441 48.8929 32.4183 48.6139 33.1487 48.2232C35.2838 47.1627 37.0256 45.5999 38.3178 43.8139C37.6998 42.9767 37.1941 42.1395 36.8008 41.1906C35.7895 41.1348 34.8343 40.9115 33.823 40.5767Z" fill="#ED5274"/>
<path d="M35.9016 38.3442C35.1712 39.014 34.4408 39.7954 33.8789 40.5768C34.8341 40.9117 35.8454 41.0791 36.8568 41.1908C36.4073 40.2977 36.0702 39.3489 35.9016 38.3442Z" fill="#E73859"/>
<path d="M38.375 43.8699C39.6673 45.6559 41.409 47.2187 43.5441 48.2792C44.2183 48.6141 44.9487 48.8931 45.6792 49.1722C45.6792 48.4466 45.623 47.6652 45.5106 46.9396C45.1173 44.5955 44.2183 42.4745 42.8699 40.6885C41.9147 41.0234 40.9034 41.1908 39.892 41.3024C39.4425 42.1396 38.9369 43.0327 38.375 43.8699Z" fill="#ED5274"/>
<path d="M40.7911 38.3442C40.5664 39.3489 40.2854 40.2977 39.8359 41.2466C40.8473 41.1349 41.8586 40.9117 42.8138 40.6326C42.2519 39.7954 41.5777 39.014 40.7911 38.3442Z" fill="#E73859"/>
<path d="M38.3737 36.558C37.4748 36.0557 36.5758 35.665 35.5645 35.3301C35.5645 36.3347 35.6768 37.3394 35.9016 38.344C36.632 37.6743 37.4748 37.0603 38.3737 36.558Z" fill="#E73859"/>
<path d="M36.8018 41.2466C37.1951 42.1396 37.7007 43.0326 38.3188 43.8698C38.9368 43.0326 39.4425 42.1954 39.8358 41.2466C38.8806 41.3582 37.8131 41.3582 36.8018 41.2466Z" fill="#E73859"/>
<path d="M35.9014 38.3442C36.1261 39.3488 36.407 40.2976 36.8565 41.2465C37.8679 41.3581 38.8792 41.3581 39.8906 41.2465C40.2839 40.2976 40.621 39.3488 40.8457 38.3442C40.1153 37.6744 39.2725 37.0604 38.3735 36.5581C37.4746 37.0604 36.6318 37.6744 35.9014 38.3442Z" fill="#E22644"/>
<path d="M84.335 34.9859V14.7812H95.2912V18.3533H88.0994V23.0975H94.9541V26.6696H88.0994V31.358H95.2912V34.9859H84.335Z" fill="white"/>
<path d="M98.3262 34.986V19.8046H101.978V34.986H98.3262ZM98.3262 17.6279V14H101.978V17.6279H98.3262Z" fill="white"/>
<path d="M120.07 29.0139H108.215C108.664 30.8558 110.237 31.9721 112.429 31.9721C113.946 31.9721 114.845 31.5814 115.8 30.4651H119.789C118.778 33.5907 115.575 35.3209 112.485 35.3209C107.821 35.3209 104.226 31.8604 104.226 27.4511C104.226 22.986 107.765 19.4697 112.26 19.4697C116.811 19.4697 120.126 22.9302 120.126 27.6186C120.182 28.1767 120.182 28.5116 120.07 29.0139ZM112.373 22.8186C110.181 22.8186 108.72 23.879 108.102 25.8325H116.586C116.137 23.879 114.62 22.8186 112.373 22.8186Z" fill="white"/>
<path d="M132.486 34.986V27.5627C132.486 23.4883 131.363 22.8186 129.565 22.8186C128.385 22.8186 127.43 23.3209 126.868 24.2139C126.418 24.9395 126.25 25.8325 126.25 27.8418V34.986H122.598V19.8046H125.969V21.2558C127.317 19.9721 128.553 19.4697 130.295 19.4697C132.43 19.4697 134.06 20.2511 135.071 21.6465C135.914 22.8186 136.195 24.1581 136.195 26.8372V34.986H132.486Z" fill="white"/>
<path d="M148.892 34.9859H145.802L137.823 14.7812H141.812L147.319 30.1859L152.825 14.7812H156.814L148.892 34.9859Z" fill="white"/>
<path d="M169.007 34.9859V33.0324C167.546 34.651 166.085 35.3766 163.95 35.3766C159.512 35.3766 156.253 32.0835 156.253 27.5068C156.253 22.8742 159.512 19.5254 164.007 19.5254C166.198 19.5254 167.715 20.251 169.007 21.9254V19.9161H172.378V34.9859H169.007ZM164.4 22.8184C161.759 22.8184 159.961 24.7719 159.961 27.5626C159.961 30.2417 161.815 32.0277 164.456 32.0277C167.265 32.0277 168.895 30.0742 168.895 27.5626C168.895 24.7719 167.041 22.8184 164.4 22.8184Z" fill="white"/>
<path d="M185.301 34.9861V33.5349C183.896 34.8745 182.773 35.321 180.919 35.321C177.379 35.321 175.075 33.2559 175.075 27.8977V19.8047H178.727V27.2279C178.727 31.2465 179.851 31.9721 181.649 31.9721C182.885 31.9721 183.896 31.4698 184.458 30.5768C184.852 29.907 185.02 28.9582 185.02 26.9489V19.8047H188.672V34.9861H185.301Z" fill="white"/>
<path d="M191.65 34.9859V14.7812H195.302V34.9859H191.65Z" fill="white"/>
<path d="M202.494 23.1533V34.9859H198.842V23.1533H197.044V19.8603H198.842V14.7812H202.494V19.8603H204.685V23.1533H202.494Z" fill="white"/>
<path d="M85.7578 59H84.505L89.267 45.9091H90.5455L95.3075 59H94.0547L89.951 47.4624H89.8615L85.7578 59ZM86.6591 53.9822H93.1534V55.0561H86.6591V53.9822ZM100.849 59.2045C100.044 59.2045 99.3388 58.9915 98.7337 58.5653C98.1286 58.1392 97.6555 57.5447 97.3146 56.782C96.978 56.0192 96.8097 55.1307 96.8097 54.1165C96.8097 53.1065 96.978 52.2223 97.3146 51.4638C97.6555 50.701 98.1307 50.1087 98.7401 49.6868C99.3494 49.2607 100.059 49.0476 100.869 49.0476C101.465 49.0476 101.962 49.1541 102.358 49.3672C102.754 49.576 103.072 49.8359 103.31 50.147C103.549 50.4581 103.734 50.7607 103.866 51.0547H103.969V45.9091H105.113V59H104.001V57.1783H103.866C103.734 57.4766 103.547 57.7834 103.304 58.0987C103.061 58.4098 102.739 58.6719 102.339 58.8849C101.942 59.098 101.446 59.2045 100.849 59.2045ZM100.984 58.1626C101.619 58.1626 102.16 57.9901 102.607 57.6449C103.055 57.2955 103.396 56.8161 103.63 56.2067C103.869 55.593 103.988 54.8899 103.988 54.0973C103.988 53.3132 103.871 52.6207 103.636 52.0199C103.402 51.4148 103.061 50.9418 102.614 50.6009C102.166 50.2557 101.623 50.0831 100.984 50.0831C100.327 50.0831 99.7734 50.2621 99.3217 50.62C98.8743 50.9737 98.5334 51.4531 98.299 52.0582C98.0689 52.6634 97.9538 53.343 97.9538 54.0973C97.9538 54.8601 98.071 55.5483 98.3054 56.1619C98.5398 56.7756 98.8807 57.2635 99.3281 57.6257C99.7798 57.9837 100.332 58.1626 100.984 58.1626ZM108.354 59V49.1818H109.46V50.6903H109.562C109.758 50.1832 110.084 49.7848 110.54 49.495C111 49.201 111.552 49.054 112.195 49.054C112.873 49.054 113.429 49.2138 113.864 49.5334C114.303 49.8487 114.631 50.2834 114.848 50.8374H114.931C115.153 50.2919 115.513 49.8594 116.011 49.5398C116.514 49.2159 117.124 49.054 117.839 49.054C118.751 49.054 119.472 49.3416 120 49.9169C120.528 50.4879 120.793 51.3232 120.793 52.4226V59H119.655V52.4226C119.655 51.647 119.457 51.0653 119.06 50.6776C118.664 50.2898 118.142 50.0959 117.494 50.0959C116.744 50.0959 116.167 50.326 115.762 50.7862C115.357 51.2464 115.155 51.8303 115.155 52.5376V59H113.991V52.3203C113.991 51.6555 113.806 51.1186 113.435 50.7095C113.065 50.3004 112.543 50.0959 111.869 50.0959C111.418 50.0959 111.011 50.2067 110.648 50.4283C110.29 50.6499 110.007 50.9588 109.798 51.3551C109.594 51.7472 109.491 52.1989 109.491 52.7102V59H108.354ZM123.818 59V49.1818H124.962V59H123.818ZM124.399 47.4943C124.165 47.4943 123.965 47.4155 123.798 47.2578C123.632 47.0959 123.549 46.902 123.549 46.6761C123.549 46.4503 123.632 46.2585 123.798 46.1009C123.965 45.9389 124.165 45.858 124.399 45.858C124.634 45.858 124.834 45.9389 125 46.1009C125.166 46.2585 125.249 46.4503 125.249 46.6761C125.249 46.902 125.166 47.0959 125 47.2578C124.834 47.4155 124.634 47.4943 124.399 47.4943ZM129.109 52.8636V59H127.971V49.1818H129.077V50.7223H129.179C129.409 50.2195 129.767 49.8168 130.253 49.5142C130.743 49.2074 131.348 49.054 132.068 49.054C132.729 49.054 133.308 49.1925 133.807 49.4695C134.31 49.7422 134.7 50.1449 134.977 50.6776C135.258 51.2102 135.398 51.8643 135.398 52.6399V59H134.261V52.7102C134.261 51.9048 134.035 51.2678 133.583 50.799C133.136 50.3303 132.535 50.0959 131.781 50.0959C131.265 50.0959 130.807 50.2067 130.406 50.4283C130.006 50.6499 129.688 50.9695 129.454 51.3871C129.224 51.8004 129.109 52.2926 129.109 52.8636Z" fill="white"/>
</svg>
