<svg width="198" height="133" viewBox="0 0 198 133" fill="none" xmlns="http://www.w3.org/2000/svg">
<g clip-path="url(#clip0_3576_19711)">
<rect width="198" height="133" rx="12" fill="url(#paint0_linear_3576_19711)"/>
<g clip-path="url(#clip1_3576_19711)">
<path d="M47.4927 100.267C52.2054 100.267 56.361 103.609 57.3749 108.228L57.4178 108.415C57.7891 109.548 59.6884 114.54 65.0437 115.931C63.687 116.275 62.4589 116.892 61.3593 117.753L61.2736 117.825C61.145 117.925 61.0308 118.025 60.9165 118.126C58.6888 120.077 57.7177 122.501 57.4035 123.476L57.3607 123.663C56.8751 125.886 55.6327 127.895 53.8619 129.343C53.6477 129.516 53.4335 129.673 53.205 129.831C52.6481 130.218 52.0483 130.548 51.4199 130.807C50.4488 131.223 49.4206 131.481 48.3781 131.567C48.0925 131.595 47.7926 131.61 47.4785 131.61C47.1786 131.61 46.8787 131.595 46.5788 131.567C45.5363 131.466 44.5224 131.208 43.5513 130.807C42.9086 130.548 42.3089 130.218 41.7662 129.817C39.6241 128.354 38.1389 126.159 37.5962 123.649L37.5534 123.462C37.2392 122.501 36.2824 120.062 34.0546 118.126C33.9404 118.025 33.8262 117.925 33.6976 117.825L33.5977 117.739C32.5123 116.892 31.2842 116.29 29.9275 115.945C35.2971 114.554 37.1964 109.548 37.5677 108.415L37.6105 108.228C38.0961 106.005 39.3385 103.996 41.1093 102.548C42.9229 101.07 45.1793 100.267 47.4927 100.267ZM47.4927 99.9082C44.9936 99.9082 42.6944 100.798 40.8951 102.261C39.0957 103.724 37.7819 105.79 37.2678 108.142C37.2678 108.142 37.2535 108.199 37.2249 108.3C36.8679 109.404 34.4973 115.931 27 115.931C29.7847 115.931 31.8697 116.835 33.3835 118.011L33.3977 118.025C33.5548 118.155 33.6976 118.269 33.8262 118.384C36.0968 120.364 37.0107 122.903 37.2249 123.562C37.2535 123.663 37.2678 123.72 37.2678 123.72C37.839 126.36 39.4242 128.626 41.5805 130.104C42.1518 130.505 42.7801 130.85 43.437 131.122C44.4081 131.538 45.4649 131.811 46.5645 131.911C46.8644 131.94 47.1786 131.954 47.4927 131.954C47.8069 131.954 48.1211 131.94 48.421 131.911C49.5206 131.811 50.5774 131.538 51.5627 131.122C52.2196 130.85 52.848 130.505 53.4192 130.104C53.6477 129.946 53.8762 129.774 54.0904 129.602C55.8898 128.138 57.2036 126.073 57.7177 123.72C57.7177 123.72 57.732 123.663 57.7605 123.562C57.9747 122.903 58.8887 120.364 61.1593 118.384C61.2878 118.269 61.4307 118.155 61.5877 118.025C63.1015 116.835 65.1865 115.931 67.9855 115.931C60.4881 115.931 58.1175 109.404 57.7605 108.3C57.732 108.199 57.7177 108.142 57.7177 108.142C56.6895 103.437 52.491 99.9082 47.4927 99.9082Z" fill="#FF6467"/>
<path d="M61.8305 117.523L61.5877 118.026C61.4306 118.155 61.2878 118.269 61.1593 118.384C57.1036 116.405 56.2039 113.923 55.347 111.542C54.8329 110.093 54.3474 108.73 53.1907 107.439C53.1478 107.396 50.7344 104.585 47.4927 104.585V103.509C51.2485 103.509 53.8761 106.593 53.9904 106.722C55.2899 108.171 55.8326 109.691 56.361 111.169C57.1892 113.507 57.989 115.716 61.8305 117.523Z" fill="#FF6467"/>
<path d="M59.2171 120.45C55.4898 118.241 53.4049 115.3 52.4338 110.882C52.4052 110.738 51.7626 107.568 47.4927 107.568V106.851C52.3624 106.851 53.1193 110.71 53.1335 110.738C54.0618 114.984 55.9897 117.696 59.5741 119.819L59.2171 120.45Z" fill="#FF6467"/>
<path d="M47.4928 103.509V104.585C44.2511 104.585 41.8377 107.396 41.8091 107.425C40.6381 108.73 40.1526 110.093 39.6384 111.542C38.7816 113.923 37.8962 116.405 33.8262 118.384C33.6977 118.269 33.5549 118.155 33.3978 118.026L33.3835 118.011L33.155 117.523C37.0108 115.716 37.7962 113.507 38.6245 111.169C39.1529 109.691 39.7099 108.171 41.0094 106.722C41.1094 106.593 43.7513 103.509 47.4928 103.509Z" fill="#FF6467"/>
<path d="M35.7826 120.45L35.4255 119.833C39.01 117.71 40.9379 114.984 41.8661 110.738C41.8661 110.71 42.623 106.851 47.507 106.851V107.568C43.2228 107.568 42.5801 110.839 42.5659 110.868C41.5948 115.3 39.4955 118.241 35.7826 120.45Z" fill="#FF6467"/>
<path d="M47.4927 117.695C46.9786 117.695 46.5645 118.111 46.5645 118.628V121.769C46.5645 122.286 46.9786 122.702 47.4927 122.702C48.0068 122.702 48.4209 122.286 48.4209 121.769V118.628C48.4209 118.111 48.0068 117.695 47.4927 117.695Z" fill="#FF6467"/>
<path d="M48.4209 125.628V131.911C48.121 131.94 47.8069 131.954 47.4927 131.954C47.1785 131.954 46.8643 131.94 46.5645 131.911V125.628C46.5645 125.112 46.9786 124.696 47.4927 124.696C48.0068 124.696 48.4209 125.112 48.4209 125.628Z" fill="#FF6467"/>
<path d="M53.4192 125.628V130.104C52.848 130.505 52.2197 130.85 51.5627 131.122V125.628C51.5627 125.112 51.9769 124.696 52.491 124.696C53.0051 124.696 53.4192 125.112 53.4192 125.628Z" fill="#FF6467"/>
<path d="M43.4371 125.628V131.122C42.7801 130.85 42.1518 130.505 41.5806 130.104V125.628C41.5806 125.112 41.9947 124.696 42.5088 124.696C43.0229 124.696 43.4371 125.112 43.4371 125.628Z" fill="#FF6467"/>
<path d="M52.491 122.702C53.0036 122.702 53.4192 122.284 53.4192 121.769C53.4192 121.254 53.0036 120.837 52.491 120.837C51.9783 120.837 51.5627 121.254 51.5627 121.769C51.5627 122.284 51.9783 122.702 52.491 122.702Z" fill="#FF6467"/>
<path d="M47.4927 113.822C46.9786 113.822 46.5645 114.253 46.5645 114.769C46.5645 115.285 46.9786 115.701 47.4927 115.701C48.0068 115.701 48.4209 115.285 48.4209 114.769C48.4209 114.253 48.0068 113.822 47.4927 113.822Z" fill="#FF6467"/>
<path d="M42.5088 122.702C43.0215 122.702 43.4371 122.284 43.4371 121.769C43.4371 121.254 43.0215 120.837 42.5088 120.837C41.9962 120.837 41.5806 121.254 41.5806 121.769C41.5806 122.284 41.9962 122.702 42.5088 122.702Z" fill="#FF6467"/>
<path d="M47.4927 132.313C52.2054 132.313 56.361 135.655 57.3749 140.274L57.4178 140.46C57.7891 141.594 59.6884 146.586 65.0437 147.977C63.687 148.321 62.4589 148.938 61.3593 149.799L61.2736 149.871C61.145 149.971 61.0308 150.071 60.9165 150.172C58.6888 152.123 57.7177 154.547 57.4035 155.522L57.3607 155.709C56.8751 157.932 55.6327 159.94 53.8619 161.389C53.6477 161.561 53.4335 161.719 53.205 161.877C52.6481 162.264 52.0483 162.594 51.4199 162.852C50.4488 163.268 49.4206 163.527 48.3781 163.613C48.0925 163.641 47.7926 163.656 47.4785 163.656C47.1786 163.656 46.8787 163.641 46.5788 163.613C45.5363 163.512 44.5224 163.254 43.5513 162.852C42.9086 162.594 42.3089 162.264 41.7662 161.863C39.6241 160.399 38.1389 158.205 37.5962 155.694L37.5534 155.508C37.2392 154.547 36.2824 152.108 34.0546 150.172C33.9404 150.071 33.8262 149.971 33.6976 149.871L33.5977 149.784C32.5123 148.938 31.2842 148.336 29.9275 147.991C35.2971 146.6 37.1964 141.594 37.5677 140.46L37.6105 140.274C38.0961 138.051 39.3385 136.042 41.1093 134.594C42.9229 133.116 45.1793 132.313 47.4927 132.313ZM47.4927 131.954C44.9936 131.954 42.6944 132.843 40.8951 134.307C39.0957 135.77 37.7819 137.835 37.2678 140.188C37.2678 140.188 37.2535 140.245 37.2249 140.346C36.8679 141.45 34.4973 147.977 27 147.977C29.7847 147.977 31.8697 148.881 33.3835 150.057L33.3977 150.071C33.5548 150.2 33.6976 150.315 33.8262 150.43C36.0968 152.41 37.0107 154.949 37.2249 155.608C37.2535 155.709 37.2678 155.766 37.2678 155.766C37.839 158.406 39.4242 160.672 41.5805 162.15C42.1518 162.551 42.7801 162.895 43.437 163.168C44.4081 163.584 45.4649 163.857 46.5645 163.957C46.8644 163.986 47.1786 164 47.4927 164C47.8069 164 48.1211 163.986 48.421 163.957C49.5206 163.857 50.5774 163.584 51.5627 163.168C52.2196 162.895 52.848 162.551 53.4192 162.15C53.6477 161.992 53.8762 161.82 54.0904 161.647C55.8898 160.184 57.2036 158.119 57.7177 155.766C57.7177 155.766 57.732 155.709 57.7605 155.608C57.9747 154.949 58.8887 152.41 61.1593 150.43C61.2878 150.315 61.4307 150.2 61.5877 150.071C63.1015 148.881 65.1865 147.977 67.9855 147.977C60.4881 147.977 58.1175 141.45 57.7605 140.346C57.732 140.245 57.7177 140.188 57.7177 140.188C56.6895 135.483 52.491 131.954 47.4927 131.954Z" fill="#FF6467"/>
<path d="M67.4715 116.29C72.1841 116.29 76.3398 119.632 77.3537 124.251L77.3966 124.438C77.7679 125.571 79.6672 130.563 85.0224 131.954C83.6658 132.298 82.4376 132.915 81.338 133.776L81.2523 133.833C81.1238 133.934 81.0096 134.034 80.8953 134.134C78.6818 136.071 77.7107 138.51 77.3966 139.485L77.3537 139.672C76.8682 141.895 75.6258 143.903 73.855 145.352C73.6407 145.524 73.4265 145.682 73.198 145.84C72.6411 146.227 72.0413 146.557 71.413 146.815C70.4419 147.231 69.4137 147.489 68.3712 147.575C68.0856 147.604 67.7857 147.618 67.4715 147.618C67.1716 147.618 66.8717 147.604 66.5718 147.575C65.5293 147.475 64.5154 147.217 63.5443 146.815C62.9017 146.557 62.3019 146.227 61.7592 145.825C59.6171 144.362 58.132 142.167 57.5893 139.657L57.5464 139.471C57.2323 138.51 56.2755 136.071 54.0477 134.134C53.9334 134.034 53.8192 133.934 53.6907 133.833L53.5907 133.747C52.5054 132.901 51.2772 132.298 49.9206 131.954C55.2901 130.563 57.1894 125.556 57.5607 124.423L57.6036 124.237C58.0891 122.013 59.3315 120.005 61.1023 118.556C62.9017 117.093 65.1723 116.29 67.4715 116.29ZM67.4715 115.931C64.9724 115.931 62.6732 116.821 60.8738 118.284C59.0745 119.747 57.7607 121.812 57.2465 124.165C57.2465 124.165 57.2323 124.222 57.2037 124.323C56.8467 125.427 54.4761 131.954 46.9788 131.954C49.7635 131.954 51.8485 132.858 53.3622 134.034L53.3765 134.048C53.5336 134.178 53.6764 134.292 53.8049 134.407C56.0755 136.387 56.9895 138.926 57.2037 139.585C57.2323 139.686 57.2465 139.743 57.2465 139.743C57.8178 142.383 59.4029 144.649 61.5593 146.127C62.1305 146.528 62.7589 146.873 63.4158 147.145C64.3869 147.561 65.4436 147.834 66.5433 147.934C66.8432 147.963 67.1573 147.977 67.4715 147.977C67.7857 147.977 68.0998 147.963 68.3997 147.934C69.4994 147.834 70.5561 147.561 71.5415 147.145C72.1984 146.873 72.8267 146.528 73.398 146.127C73.6265 145.969 73.855 145.797 74.0692 145.625C75.8685 144.161 77.1823 142.096 77.6964 139.743C77.6964 139.743 77.7107 139.686 77.7393 139.585C77.9535 138.926 78.8675 136.387 81.1381 134.407C81.2666 134.292 81.4094 134.178 81.5665 134.048C83.0803 132.858 85.1652 131.954 87.9642 131.954C80.4669 131.954 78.0963 125.427 77.7393 124.323C77.7107 124.222 77.6964 124.165 77.6964 124.165C76.6682 119.46 72.4697 115.931 67.4715 115.931Z" fill="#FF6467"/>
<path d="M81.8092 133.546L81.5664 134.049C81.4094 134.178 81.2665 134.292 81.138 134.407C77.0823 132.428 76.1826 129.946 75.3258 127.565C74.8117 126.116 74.3262 124.753 73.1694 123.462C73.1266 123.419 70.7131 120.608 67.4714 120.608V119.532C71.2272 119.532 73.8549 122.616 73.9691 122.745C75.2687 124.194 75.8113 125.714 76.3397 127.192C77.168 129.53 77.9677 131.739 81.8092 133.546Z" fill="#FF6467"/>
<path d="M79.1959 136.473C75.4686 134.264 73.3836 131.323 72.4125 126.905C72.384 126.761 71.7414 123.591 67.4714 123.591V122.874C72.3411 122.874 73.098 126.733 73.1123 126.761C74.0405 131.007 75.9684 133.719 79.5529 135.842L79.1959 136.473Z" fill="#FF6467"/>
<path d="M67.4716 119.532V120.608C64.2299 120.608 61.8164 123.419 61.7879 123.448C60.6168 124.753 60.1313 126.116 59.6172 127.565C58.7604 129.946 57.875 132.428 53.805 134.407C53.6765 134.292 53.5336 134.178 53.3766 134.049L53.3623 134.034L53.1338 133.546C56.9896 131.739 57.775 129.53 58.6033 127.192C59.1317 125.714 59.6886 124.194 60.9881 122.745C61.0881 122.616 63.73 119.532 67.4716 119.532Z" fill="#FF6467"/>
<path d="M55.7613 136.473L55.4043 135.856C58.9887 133.733 60.9166 131.007 61.8449 126.761C61.8449 126.733 62.6017 122.874 67.4857 122.874V123.591C63.2015 123.591 62.5589 126.862 62.5446 126.891C61.5735 131.323 59.4886 134.264 55.7613 136.473Z" fill="#FF6467"/>
<path d="M67.4715 129.846C66.9573 129.846 66.5432 130.276 66.5432 130.792C66.5432 131.309 66.9573 131.725 67.4715 131.725C67.9856 131.725 68.3997 131.309 68.3997 130.792C68.3997 130.276 67.9856 129.846 67.4715 129.846Z" fill="#FF6467"/>
<path d="M7.49274 100.382C12.2054 100.382 16.361 103.724 17.375 108.343L17.4178 108.529C17.7891 109.663 19.6884 114.654 25.0437 116.046C23.687 116.39 22.4589 117.007 21.3593 117.868L21.2736 117.925C21.145 118.025 21.0308 118.126 20.9166 118.226C18.6888 120.177 17.7177 122.601 17.4035 123.577L17.3607 123.763C16.8751 125.987 15.6327 127.995 13.8619 129.444C13.6477 129.616 13.4335 129.774 13.205 129.932C12.6481 130.319 12.0483 130.649 11.4199 130.907C10.4488 131.323 9.42063 131.581 8.37814 131.667C8.09253 131.696 7.79263 131.71 7.47846 131.71C7.17856 131.71 6.87867 131.696 6.57878 131.667C5.53629 131.567 4.52236 131.309 3.55128 130.907C2.90865 130.649 2.30886 130.319 1.7662 129.917C-0.375901 128.454 -1.86109 126.259 -2.40375 123.749L-2.43232 123.562C-2.74649 122.601 -3.70329 120.163 -5.93108 118.226C-6.04532 118.126 -6.15957 118.025 -6.28809 117.925L-6.38806 117.839C-7.48767 116.993 -8.7158 116.39 -10.0582 116.046C-4.68866 114.654 -2.78933 109.648 -2.41804 108.515L-2.37519 108.328C-1.88965 106.105 -0.647234 104.097 1.12357 102.648C2.92293 101.185 5.17927 100.382 7.49274 100.382ZM7.49274 100.023C4.99363 100.023 2.69444 100.912 0.895076 102.375C-0.904286 103.839 -2.21811 105.904 -2.73221 108.257C-2.73221 108.257 -2.74649 108.314 -2.77505 108.415C-3.13207 109.519 -5.50266 116.046 -13 116.046C-10.2153 116.046 -8.1303 116.95 -6.61655 118.126L-6.60227 118.14C-6.44518 118.269 -6.30237 118.384 -6.17385 118.499C-3.90322 120.478 -2.98926 123.017 -2.77505 123.677C-2.74649 123.778 -2.73221 123.835 -2.73221 123.835C-2.16098 126.474 -0.57583 128.741 1.58055 130.218C2.15177 130.62 2.78012 130.964 3.43703 131.237C4.40812 131.653 5.46489 131.925 6.5645 132.026C6.86439 132.055 7.17856 132.069 7.49274 132.069C7.80691 132.069 8.12109 132.055 8.42098 132.026C9.52059 131.925 10.5774 131.653 11.5627 131.237C12.2196 130.964 12.848 130.62 13.4192 130.218C13.6477 130.061 13.8762 129.888 14.0904 129.716C15.8898 128.253 17.2036 126.188 17.7177 123.835C17.7177 123.835 17.732 123.778 17.7605 123.677C17.9747 123.017 18.8887 120.478 21.1593 118.499C21.2878 118.384 21.4307 118.269 21.5877 118.14C23.1015 116.95 25.1865 116.046 27.9855 116.046C20.4881 116.046 18.1175 109.519 17.7605 108.415C17.732 108.314 17.7177 108.257 17.7177 108.257C16.6895 103.552 12.491 100.023 7.49274 100.023Z" fill="#FF6467"/>
<path d="M21.8305 117.638L21.5877 118.14C21.4306 118.269 21.2878 118.384 21.1593 118.499C17.1036 116.519 16.2039 114.038 15.347 111.657C14.8329 110.208 14.3474 108.845 13.1907 107.554C13.1478 107.511 10.7344 104.699 7.49268 104.699V103.624C11.2485 103.624 13.8761 106.708 13.9904 106.837C15.2899 108.286 15.8326 109.806 16.361 111.284C17.1892 113.622 17.989 115.831 21.8305 117.638Z" fill="#FF6467"/>
<path d="M19.2171 120.565C15.4898 118.355 13.4049 115.415 12.4338 110.997C12.4052 110.853 11.7626 107.683 7.49268 107.683V106.966C12.3624 106.966 13.1193 110.825 13.1335 110.853C14.0618 115.099 15.9897 117.81 19.5741 119.933L19.2171 120.565Z" fill="#FF6467"/>
<path d="M7.49281 103.624V104.699C4.2511 104.699 1.83767 107.511 1.80911 107.54C0.638093 108.845 0.152551 110.208 -0.361553 111.657C-1.21839 114.038 -2.10379 116.519 -6.17378 118.499C-6.30231 118.384 -6.44511 118.269 -6.6022 118.14L-6.61648 118.126L-6.84497 117.638C-2.98919 115.831 -2.20376 113.622 -1.37548 111.284C-0.847095 109.806 -0.290149 108.286 1.00939 106.837C1.10935 106.708 3.75128 103.624 7.49281 103.624Z" fill="#FF6467"/>
<path d="M-4.21745 120.565L-4.57446 119.948C-0.990018 117.825 0.93787 115.099 1.86611 110.853C1.86611 110.825 2.62299 106.966 7.50697 106.966V107.683C3.22277 107.683 2.58014 110.954 2.56586 110.982C1.59478 115.415 -0.504476 118.37 -4.21745 120.565Z" fill="#FF6467"/>
<path d="M7.4927 117.81C6.97859 117.81 6.56445 118.226 6.56445 118.742V121.884C6.56445 122.4 6.97859 122.816 7.4927 122.816C8.0068 122.816 8.42094 122.4 8.42094 121.884V118.742C8.42094 118.226 8.0068 117.81 7.4927 117.81Z" fill="#FF6467"/>
<path d="M8.42094 125.743V132.026C8.12104 132.055 7.80687 132.069 7.4927 132.069C7.17852 132.069 6.86435 132.055 6.56445 132.026V125.743C6.56445 125.227 6.97859 124.811 7.4927 124.811C8.0068 124.811 8.42094 125.227 8.42094 125.743Z" fill="#FF6467"/>
<path d="M13.4192 125.743V130.218C12.848 130.62 12.2197 130.964 11.5627 131.237V125.743C11.5627 125.227 11.9769 124.811 12.491 124.811C13.0051 124.811 13.4192 125.227 13.4192 125.743Z" fill="#FF6467"/>
<path d="M3.43705 125.743V131.237C2.78014 130.964 2.15179 130.62 1.58057 130.218V125.743C1.58057 125.227 1.9947 124.811 2.50881 124.811C3.02291 124.811 3.43705 125.227 3.43705 125.743Z" fill="#FF6467"/>
<path d="M12.491 122.816C13.0036 122.816 13.4192 122.399 13.4192 121.884C13.4192 121.369 13.0036 120.952 12.491 120.952C11.9783 120.952 11.5627 121.369 11.5627 121.884C11.5627 122.399 11.9783 122.816 12.491 122.816Z" fill="#FF6467"/>
<path d="M7.4927 113.937C6.97859 113.937 6.56445 114.367 6.56445 114.884C6.56445 115.4 6.97859 115.816 7.4927 115.816C8.0068 115.816 8.42094 115.4 8.42094 114.884C8.42094 114.367 8.0068 113.937 7.4927 113.937Z" fill="#FF6467"/>
<path d="M2.50881 122.816C3.02146 122.816 3.43705 122.399 3.43705 121.884C3.43705 121.369 3.02146 120.952 2.50881 120.952C1.99615 120.952 1.58057 121.369 1.58057 121.884C1.58057 122.399 1.99615 122.816 2.50881 122.816Z" fill="#FF6467"/>
<path d="M27.4713 84.3586C32.1839 84.3586 36.3395 87.7009 37.3535 92.3199L37.3963 92.5064C37.7676 93.6396 39.6669 98.6315 45.0222 100.023C43.6655 100.367 42.4374 100.984 41.3378 101.845L41.2521 101.916C41.1236 102.017 41.0093 102.117 40.8951 102.218C38.6673 104.169 37.6962 106.593 37.382 107.568L37.3392 107.755C36.8536 109.978 35.6112 111.986 33.8404 113.435C33.6262 113.607 33.412 113.765 33.1835 113.923C32.6266 114.31 32.0268 114.64 31.3984 114.898C30.4274 115.314 29.3991 115.573 28.3567 115.659C28.071 115.687 27.7711 115.702 27.457 115.702C27.1571 115.702 26.8572 115.687 26.5573 115.659C25.5148 115.558 24.5009 115.3 23.5298 114.898C22.8872 114.64 22.2874 114.31 21.7447 113.909C19.6026 112.445 18.1174 110.251 17.5748 107.74L17.5319 107.554C17.2177 106.593 16.2609 104.154 14.0332 102.218C13.9189 102.117 13.8047 102.017 13.6761 101.916L13.5762 101.83C12.4908 100.984 11.2627 100.382 9.90605 100.037C15.2756 98.6459 17.1749 93.6396 17.5462 92.5064L17.589 92.3199C18.0746 90.0965 19.317 88.0882 21.0878 86.6394C22.9014 85.1619 25.1721 84.3586 27.4713 84.3586ZM27.4713 84C24.9721 84 22.673 84.8894 20.8736 86.3525C19.0742 87.8157 17.7604 89.8813 17.2463 92.2338C17.2463 92.2338 17.232 92.2912 17.2035 92.3916C16.8464 93.4961 14.4759 100.023 6.97852 100.023C9.76324 100.023 11.8482 100.927 13.362 102.103L13.3762 102.117C13.5333 102.246 13.6761 102.361 13.8047 102.476C16.0753 104.455 16.9893 106.994 17.2035 107.654C17.232 107.755 17.2463 107.812 17.2463 107.812C17.8175 110.451 19.4027 112.718 21.5591 114.195C22.1303 114.597 22.7586 114.941 23.4155 115.214C24.3866 115.63 25.4434 115.902 26.543 116.003C26.8429 116.032 27.1571 116.046 27.4713 116.046C27.7854 116.046 28.0996 116.032 28.3995 116.003C29.4991 115.902 30.5559 115.63 31.5412 115.214C32.1982 114.941 32.8265 114.597 33.3977 114.195C33.6262 114.038 33.8547 113.866 34.0689 113.693C35.8683 112.23 37.1821 110.165 37.6962 107.812C37.6962 107.812 37.7105 107.755 37.739 107.654C37.9533 106.994 38.8672 104.455 41.1378 102.476C41.2664 102.361 41.4092 102.246 41.5663 102.117C43.08 100.927 45.165 100.023 47.964 100.023C40.4666 100.023 38.0961 93.4961 37.739 92.3916C37.7105 92.2912 37.6962 92.2338 37.6962 92.2338C36.668 87.5288 32.4695 84 27.4713 84Z" fill="#FF6467"/>
<path d="M41.809 101.615L41.5662 102.117C41.4091 102.246 41.2663 102.361 41.1378 102.476C37.0821 100.496 36.1824 98.0148 35.3256 95.6336C34.8114 94.1848 34.3259 92.822 33.1692 91.531C33.1263 91.488 30.7129 88.6764 27.4712 88.6764V87.6006C31.227 87.6006 33.8546 90.6847 33.9689 90.8138C35.2684 92.2626 35.8111 93.7831 36.3395 95.2606C37.1678 97.5988 37.9675 99.8079 41.809 101.615Z" fill="#FF6467"/>
<path d="M39.1956 104.542C35.4684 102.333 33.3834 99.3919 32.4123 94.9737C32.3837 94.8303 31.7411 91.6601 27.4712 91.6601V90.9429C32.3409 90.9429 33.0978 94.8016 33.1121 94.8303C34.0403 99.0763 35.9682 101.787 39.5526 103.91L39.1956 104.542Z" fill="#FF6467"/>
<path d="M27.4713 87.6006V88.6764C24.2296 88.6764 21.8162 91.488 21.7876 91.5167C20.6166 92.822 20.1311 94.1848 19.617 95.6336C18.7601 98.0148 17.8747 100.496 13.8047 102.476C13.6762 102.361 13.5334 102.246 13.3763 102.117L13.362 102.103L13.1335 101.615C16.9893 99.8079 17.7748 97.5988 18.603 95.2606C19.1314 93.7831 19.6884 92.2626 20.9879 90.8138C21.0879 90.6847 23.7298 87.6006 27.4713 87.6006Z" fill="#FF6467"/>
<path d="M15.7611 104.542L15.4041 103.925C18.9885 101.802 20.9164 99.0763 21.8446 94.8303C21.8446 94.8016 22.6015 90.9429 27.4855 90.9429V91.6601C23.2013 91.6601 22.5587 94.9307 22.5444 94.9594C21.5733 99.3919 19.4883 102.347 15.7611 104.542Z" fill="#FF6467"/>
<path d="M27.4712 101.787C26.9571 101.787 26.543 102.203 26.543 102.72V105.861C26.543 106.377 26.9571 106.793 27.4712 106.793C27.9853 106.793 28.3995 106.377 28.3995 105.861V102.72C28.3995 102.203 27.9853 101.787 27.4712 101.787Z" fill="#FF6467"/>
<path d="M28.3995 109.72V116.003C28.0996 116.032 27.7854 116.046 27.4712 116.046C27.157 116.046 26.8429 116.032 26.543 116.003V109.72C26.543 109.204 26.9571 108.788 27.4712 108.788C27.9853 108.788 28.3995 109.204 28.3995 109.72Z" fill="#FF6467"/>
<path d="M33.3977 109.72V114.196C32.8265 114.597 32.1982 114.941 31.5413 115.214V109.72C31.5413 109.204 31.9554 108.788 32.4695 108.788C32.9836 108.788 33.3977 109.204 33.3977 109.72Z" fill="#FF6467"/>
<path d="M23.4156 109.72V115.214C22.7587 114.941 22.1303 114.597 21.5591 114.196V109.72C21.5591 109.204 21.9732 108.788 22.4873 108.788C23.0014 108.788 23.4156 109.204 23.4156 109.72Z" fill="#FF6467"/>
<path d="M32.4695 106.794C32.9822 106.794 33.3977 106.376 33.3977 105.861C33.3977 105.346 32.9822 104.929 32.4695 104.929C31.9568 104.929 31.5413 105.346 31.5413 105.861C31.5413 106.376 31.9568 106.794 32.4695 106.794Z" fill="#FF6467"/>
<path d="M27.4712 97.9141C26.9571 97.9141 26.543 98.3444 26.543 98.8608C26.543 99.3772 26.9571 99.7932 27.4712 99.7932C27.9853 99.7932 28.3995 99.3772 28.3995 98.8608C28.3995 98.3444 27.9853 97.9141 27.4712 97.9141Z" fill="#FF6467"/>
<path d="M22.4873 106.794C23 106.794 23.4156 106.376 23.4156 105.861C23.4156 105.346 23 104.929 22.4873 104.929C21.9747 104.929 21.5591 105.346 21.5591 105.861C21.5591 106.376 21.9747 106.794 22.4873 106.794Z" fill="#FF6467"/>
<path d="M87.5071 132.083C92.2198 132.083 96.3754 135.426 97.3894 140.044L97.4322 140.231C97.8035 141.364 99.7028 146.356 105.058 147.748C103.701 148.092 102.473 148.709 101.374 149.569L101.288 149.641C101.159 149.741 101.045 149.842 100.931 149.942C98.7032 151.893 97.7321 154.317 97.4179 155.293L97.3751 155.479C96.8895 157.703 95.6471 159.711 93.8763 161.16C93.6621 161.332 93.4479 161.49 93.2194 161.648C92.6625 162.035 92.0627 162.365 91.4343 162.623C90.4632 163.039 89.435 163.297 88.3925 163.383C88.1069 163.412 87.807 163.426 87.4929 163.426C87.193 163.426 86.8931 163.412 86.5932 163.383C85.5507 163.283 84.5368 163.025 83.5657 162.623C82.9231 162.365 82.3233 162.035 81.7806 161.633C79.6385 160.17 78.1533 157.975 77.6107 155.465L77.5678 155.278C77.2536 154.317 76.2968 151.879 74.0691 149.942C73.9548 149.842 73.8406 149.741 73.712 149.641L73.6121 149.555C72.5267 148.709 71.2986 148.106 69.9419 147.762C75.3115 146.37 77.2108 141.364 77.5821 140.231L77.6249 140.044C78.1105 137.821 79.3529 135.813 81.1237 134.364C82.9373 132.887 85.208 132.083 87.5071 132.083ZM87.5071 131.725C85.008 131.725 82.7088 132.614 80.9095 134.077C79.1101 135.54 77.7963 137.606 77.2822 139.958C77.2822 139.958 77.2679 140.016 77.2394 140.116C76.8823 141.221 74.5117 147.748 67.0144 147.748C69.7991 147.748 71.8841 148.651 73.3979 149.828L73.4121 149.842C73.5692 149.971 73.712 150.086 73.8406 150.2C76.1112 152.18 77.0251 154.719 77.2394 155.379C77.2679 155.479 77.2822 155.537 77.2822 155.537C77.8534 158.176 79.4386 160.443 81.595 161.92C82.1662 162.322 82.7945 162.666 83.4514 162.939C84.4225 163.355 85.4793 163.627 86.5789 163.727C86.8788 163.756 87.193 163.771 87.5071 163.771C87.8213 163.771 88.1355 163.756 88.4354 163.727C89.535 163.627 90.5918 163.355 91.5771 162.939C92.234 162.666 92.8624 162.322 93.4336 161.92C93.6621 161.762 93.8906 161.59 94.1048 161.418C95.9042 159.955 97.218 157.889 97.7321 155.537C97.7321 155.537 97.7464 155.479 97.7749 155.379C97.9891 154.719 98.9031 152.18 101.174 150.2C101.302 150.086 101.445 149.971 101.602 149.842C103.116 148.651 105.201 147.748 108 147.748C100.503 147.748 98.132 141.221 97.7749 140.116C97.7464 140.016 97.7321 139.958 97.7321 139.958C96.7039 135.253 92.5054 131.725 87.5071 131.725Z" fill="#FF6467"/>
</g>
<g filter="url(#filter0_d_3576_19711)">
<path d="M-13.2592 18.2077H-52.7116C-56.9738 18.2077 -56.9738 24.7174 -52.7116 24.7174H-19.3884C-15.2318 24.7174 -15.2318 30.8645 -19.3884 30.8645H-41.052C-45.508 30.8645 -45.508 36.908 -41.052 36.908H46.5886C41.481 36.908 41.4281 43.0205 46.5886 43.0205H66.5614C70.0663 43.0205 70.489 36.8216 65.5751 36.8216H86.816C90.1095 36.8216 90.1095 30.6055 86.816 30.6055H61.9469C58.9879 30.6055 58.9879 24.3202 61.9469 24.3202H69.9078C73.2718 24.3202 73.2718 18.1904 69.9078 18.1904H48.6493L-13.2592 18.2077Z" fill="white"/>
</g>
<g filter="url(#filter1_d_3576_19711)">
<path d="M-9.56048 49.9618H17.5982C19.6237 49.9618 21.2793 48.3387 21.2793 46.353C21.2793 44.3672 19.6237 42.7441 17.5982 42.7441H-9.56048C-11.5859 42.7441 -13.2415 44.3672 -13.2415 46.353C-13.2415 48.3214 -11.5859 49.9618 -9.56048 49.9618Z" fill="white"/>
</g>
<g filter="url(#filter2_d_3576_19711)">
<path d="M24.238 11.8017H42.0796C43.7 11.8017 45.0386 10.4894 45.0386 8.90087C45.0386 7.3123 43.7 6 42.0796 6H24.238C22.6176 6 21.2791 7.3123 21.2791 8.90087C21.2791 10.4894 22.6176 11.8017 24.238 11.8017Z" fill="white"/>
</g>
<g filter="url(#filter3_d_3576_19711)">
<path d="M86.0762 24.0098H95.0411C96.6614 24.0098 98 22.6975 98 21.1089C98 19.5203 96.6614 18.208 95.0411 18.208H86.0762C84.4559 18.208 83.1173 19.5203 83.1173 21.1089C83.1173 22.6975 84.4559 24.0098 86.0762 24.0098Z" fill="white"/>
</g>
<g filter="url(#filter4_d_3576_19711)">
<path d="M199.462 6.73872H158.492C154.066 6.73872 154.066 13.5314 158.492 13.5314H193.097C197.413 13.5314 197.413 19.9458 193.097 19.9458H170.6C165.973 19.9458 165.973 26.252 170.6 26.252H261.611C256.307 26.252 256.252 32.6304 261.611 32.6304H282.352C285.992 32.6304 286.431 26.162 281.328 26.162H303.386C306.806 26.162 306.806 19.6755 303.386 19.6755H277.56C274.488 19.6755 274.488 13.117 277.56 13.117H285.828C289.321 13.117 289.321 6.7207 285.828 6.7207H263.751L199.462 6.73872Z" fill="white"/>
</g>
<g filter="url(#filter5_b_3576_19711)">
<rect x="49" y="16" width="100" height="100" rx="16" fill="white" fill-opacity="0.5"/>
<path d="M72 66L90 84L126 48" stroke="#FA727D" stroke-width="10" stroke-linecap="round" stroke-linejoin="round"/>
</g>
</g>
<defs>
<filter id="filter0_d_3576_19711" x="-55.9082" y="18.1904" width="148.194" height="28.8301" filterUnits="userSpaceOnUse" color-interpolation-filters="sRGB">
<feFlood flood-opacity="0" result="BackgroundImageFix"/>
<feColorMatrix in="SourceAlpha" type="matrix" values="0 0 0 0 0 0 0 0 0 0 0 0 0 0 0 0 0 0 127 0" result="hardAlpha"/>
<feOffset dx="3" dy="4"/>
<feComposite in2="hardAlpha" operator="out"/>
<feColorMatrix type="matrix" values="0 0 0 0 0 0 0 0 0 0 0 0 0 0 0 0 0 0 0.15 0"/>
<feBlend mode="normal" in2="BackgroundImageFix" result="effect1_dropShadow_3576_19711"/>
<feBlend mode="normal" in="SourceGraphic" in2="effect1_dropShadow_3576_19711" result="shape"/>
</filter>
<filter id="filter1_d_3576_19711" x="-13.2415" y="42.7441" width="37.5208" height="11.2178" filterUnits="userSpaceOnUse" color-interpolation-filters="sRGB">
<feFlood flood-opacity="0" result="BackgroundImageFix"/>
<feColorMatrix in="SourceAlpha" type="matrix" values="0 0 0 0 0 0 0 0 0 0 0 0 0 0 0 0 0 0 127 0" result="hardAlpha"/>
<feOffset dx="3" dy="4"/>
<feComposite in2="hardAlpha" operator="out"/>
<feColorMatrix type="matrix" values="0 0 0 0 0 0 0 0 0 0 0 0 0 0 0 0 0 0 0.15 0"/>
<feBlend mode="normal" in2="BackgroundImageFix" result="effect1_dropShadow_3576_19711"/>
<feBlend mode="normal" in="SourceGraphic" in2="effect1_dropShadow_3576_19711" result="shape"/>
</filter>
<filter id="filter2_d_3576_19711" x="21.2791" y="6" width="26.7595" height="9.80176" filterUnits="userSpaceOnUse" color-interpolation-filters="sRGB">
<feFlood flood-opacity="0" result="BackgroundImageFix"/>
<feColorMatrix in="SourceAlpha" type="matrix" values="0 0 0 0 0 0 0 0 0 0 0 0 0 0 0 0 0 0 127 0" result="hardAlpha"/>
<feOffset dx="3" dy="4"/>
<feComposite in2="hardAlpha" operator="out"/>
<feColorMatrix type="matrix" values="0 0 0 0 0 0 0 0 0 0 0 0 0 0 0 0 0 0 0.15 0"/>
<feBlend mode="normal" in2="BackgroundImageFix" result="effect1_dropShadow_3576_19711"/>
<feBlend mode="normal" in="SourceGraphic" in2="effect1_dropShadow_3576_19711" result="shape"/>
</filter>
<filter id="filter3_d_3576_19711" x="83.1172" y="18.208" width="17.8828" height="9.80176" filterUnits="userSpaceOnUse" color-interpolation-filters="sRGB">
<feFlood flood-opacity="0" result="BackgroundImageFix"/>
<feColorMatrix in="SourceAlpha" type="matrix" values="0 0 0 0 0 0 0 0 0 0 0 0 0 0 0 0 0 0 127 0" result="hardAlpha"/>
<feOffset dx="3" dy="4"/>
<feComposite in2="hardAlpha" operator="out"/>
<feColorMatrix type="matrix" values="0 0 0 0 0 0 0 0 0 0 0 0 0 0 0 0 0 0 0.15 0"/>
<feBlend mode="normal" in2="BackgroundImageFix" result="effect1_dropShadow_3576_19711"/>
<feBlend mode="normal" in="SourceGraphic" in2="effect1_dropShadow_3576_19711" result="shape"/>
</filter>
<filter id="filter4_d_3576_19711" x="155.172" y="6.7207" width="153.779" height="29.9097" filterUnits="userSpaceOnUse" color-interpolation-filters="sRGB">
<feFlood flood-opacity="0" result="BackgroundImageFix"/>
<feColorMatrix in="SourceAlpha" type="matrix" values="0 0 0 0 0 0 0 0 0 0 0 0 0 0 0 0 0 0 127 0" result="hardAlpha"/>
<feOffset dx="3" dy="4"/>
<feComposite in2="hardAlpha" operator="out"/>
<feColorMatrix type="matrix" values="0 0 0 0 0 0 0 0 0 0 0 0 0 0 0 0 0 0 0.15 0"/>
<feBlend mode="normal" in2="BackgroundImageFix" result="effect1_dropShadow_3576_19711"/>
<feBlend mode="normal" in="SourceGraphic" in2="effect1_dropShadow_3576_19711" result="shape"/>
</filter>
<filter id="filter5_b_3576_19711" x="39" y="6" width="120" height="120" filterUnits="userSpaceOnUse" color-interpolation-filters="sRGB">
<feFlood flood-opacity="0" result="BackgroundImageFix"/>
<feGaussianBlur in="BackgroundImageFix" stdDeviation="5"/>
<feComposite in2="SourceAlpha" operator="in" result="effect1_backgroundBlur_3576_19711"/>
<feBlend mode="normal" in="SourceGraphic" in2="effect1_backgroundBlur_3576_19711" result="shape"/>
</filter>
<linearGradient id="paint0_linear_3576_19711" x1="104.981" y1="118.362" x2="104.981" y2="-18.6116" gradientUnits="userSpaceOnUse">
<stop stop-color="#FFF1D4"/>
<stop offset="0.286474" stop-color="#FFF1D4"/>
<stop offset="0.942789" stop-color="#FFCFD1"/>
</linearGradient>
<clipPath id="clip0_3576_19711">
<rect width="198" height="133" rx="12" fill="white"/>
</clipPath>
<clipPath id="clip1_3576_19711">
<rect width="121" height="80" fill="white" transform="translate(-13 84)"/>
</clipPath>
</defs>
</svg>
